HIERARCHY
ROOT Hips
{
	OFFSET -238.313904 85.665176 430.008087
	CHANNELS 6 Xposition Yposition Zposition Zrotation Yrotation Xrotation 
	JOINT LeftUpLeg
	{
		OFFSET 0.103457 1.857819 10.548500
		CHANNELS 3 Zrotation Yrotation Xrotation
		JOINT LeftLeg
		{
			OFFSET 43.500000 -0.000019 -0.000010
			CHANNELS 3 Zrotation Yrotation Xrotation
			JOINT LeftFoot
			{
				OFFSET 42.372196 0.000008 0.000000
				CHANNELS 3 Zrotation Yrotation Xrotation
				JOINT LeftToe
				{
					OFFSET 17.300003 0.000001 0.000006
					CHANNELS 3 Zrotation Yrotation Xrotation
					End Site
					{
						OFFSET 0.000000 0.000000 0.000000
					}
				}
			}
		}
	}
	JOINT RightUpLeg
	{
		OFFSET 0.103456 1.857821 -10.548498
		CHANNELS 3 Zrotation Yrotation Xrotation
		JOINT RightLeg
		{
			OFFSET 43.500046 -0.000031 0.000019
			CHANNELS 3 Zrotation Yrotation Xrotation
			JOINT RightFoot
			{
				OFFSET 42.372261 -0.000004 0.000021
				CHANNELS 3 Zrotation Yrotation Xrotation
				JOINT RightToe
				{
					OFFSET 17.300016 0.000003 0.000000
					CHANNELS 3 Zrotation Yrotation Xrotation
					End Site
					{
						OFFSET 0.000000 0.000000 0.000000
					}
				}
			}
		}
	}
	JOINT Spine
	{
		OFFSET 6.901967 -2.603733 -0.000002
		CHANNELS 3 Zrotation Yrotation Xrotation
		JOINT Spine1
		{
			OFFSET 12.588102 0.000004 -0.000004
			CHANNELS 3 Zrotation Yrotation Xrotation
			JOINT Spine2
			{
				OFFSET 12.343203 -0.000004 0.000000
				CHANNELS 3 Zrotation Yrotation Xrotation
				JOINT Neck
				{
					OFFSET 25.832895 -0.000011 0.000005
					CHANNELS 3 Zrotation Yrotation Xrotation
					JOINT Head
					{
						OFFSET 11.766605 0.000003 0.000008
						CHANNELS 3 Zrotation Yrotation Xrotation
						End Site
						{
							OFFSET 0.000000 0.000000 0.000000
						}
					}
				}
				JOINT LeftShoulder
				{
					OFFSET 19.745905 -1.480360 6.000111
					CHANNELS 3 Zrotation Yrotation Xrotation
					JOINT LeftArm
					{
						OFFSET 11.284124 0.000007 -0.000017
						CHANNELS 3 Zrotation Yrotation Xrotation
						JOINT LeftForeArm
						{
							OFFSET 33.000050 0.000003 0.000017
							CHANNELS 3 Zrotation Yrotation Xrotation
							JOINT LeftHand
							{
								OFFSET 25.200005 0.000010 0.000011
								CHANNELS 3 Zrotation Yrotation Xrotation
								End Site
								{
									OFFSET 0.000000 0.000000 0.000000
								}
							}
						}
					}
				}
				JOINT RightShoulder
				{
					OFFSET 19.746092 -1.480387 -6.000073
					CHANNELS 3 Zrotation Yrotation Xrotation
					JOINT RightArm
					{
						OFFSET 11.284132 -0.000045 -0.000015
						CHANNELS 3 Zrotation Yrotation Xrotation
						JOINT RightForeArm
						{
							OFFSET 33.000092 0.000031 0.000005
							CHANNELS 3 Zrotation Yrotation Xrotation
							JOINT RightHand
							{
								OFFSET 25.199797 0.000145 0.000419
								CHANNELS 3 Zrotation Yrotation Xrotation
								End Site
								{
									OFFSET 0.000000 0.000000 0.000000
								}
							}
						}
					}
				}
			}
		}
	}
}
MOTION
Frames: 7
Frame Time: 0.033333
-238.313904 85.665176 430.008087 89.451436 -1.697837 86.253336 -169.061402 1.177792 176.887297 -23.257484 1.490854 1.686197 100.227412 -1.052103 0.401862 21.454550 0.003089 0.000000 142.005042 -6.181906 -179.441541 -34.048551 -5.585505 7.913550 75.821828 -4.464242 3.727373 21.454560 -0.003104 -0.000016 7.685286 0.655362 -1.454973 5.340810 1.376661 -2.878518 5.023054 1.359408 -2.886769 0.179934 -8.316699 8.547954 2.293906 -1.007707 4.859526 -168.347006 -77.505114 -13.337086 -38.244497 49.490707 -8.379225 -43.382291 -15.189919 1.562384 7.460482 -11.019793 29.800453 -171.626699 73.424636 9.959843 2.725695 -54.185817 -41.289088 -31.201387 13.297399 -1.170210 9.945999 -0.180780 -11.179931 
-238.903503 85.655693 432.868713 88.768704 -2.039244 87.044566 -168.950125 -0.058001 174.588719 -25.722559 2.637780 3.294217 98.568693 -2.176317 -0.016044 21.454550 0.003094 -0.000000 142.155498 -6.641105 -178.438952 -36.325357 -5.561969 8.325240 74.604114 -4.905003 3.076307 21.454558 -0.003113 -0.000020 7.645063 0.942951 -1.505530 5.252743 1.952752 -2.967412 4.934919 1.934955 -2.979140 0.255535 -8.332258 8.507147 2.423307 -1.324319 4.887295 -169.046089 -77.538466 -12.623500 -38.670803 51.152427 -7.712986 -44.910444 -15.692524 1.639503 8.135529 -9.656113 30.027673 -171.170606 73.161701 10.427026 2.974122 -54.081510 -41.957176 -31.222864 13.057158 -1.155138 9.689615 -0.216945 -11.066861 
-239.458893 85.829453 435.923615 88.570041 -1.931875 87.225655 -169.450751 -0.867197 172.671540 -30.012329 3.520491 4.512849 94.771737 -3.045323 -0.085386 21.454555 0.003095 -0.000003 143.164262 -6.996395 -177.843714 -38.333255 -5.693169 8.190435 75.304468 -4.795961 3.111510 21.454557 -0.003121 -0.000019 7.701475 1.066781 -1.479569 5.363165 2.200481 -2.908912 5.045243 2.183015 -2.922136 0.436980 -8.092975 8.342478 2.466191 -1.758038 4.939738 -169.609293 -77.044998 -12.047355 -38.028454 52.337141 -5.629724 -45.837198 -16.224938 1.702095 8.545425 -8.255141 33.112709 -171.395305 72.978925 10.195074 2.604968 -54.230705 -42.424166 -30.985635 12.941497 -1.142896 9.728927 -0.053914 -10.870641 
-239.977097 86.229713 438.947205 88.489322 -1.685944 87.084195 -171.516063 -1.907300 171.365553 -36.913611 3.852784 5.389372 88.399778 -3.660090 0.161233 21.454553 0.003091 0.000001 144.980122 -7.637691 -177.691469 -39.246663 -6.116791 8.141533 76.768382 -4.865315 2.731875 21.454563 -0.003110 -0.000019 7.762390 1.110793 -1.415880 5.485298 2.286978 -2.778324 5.167339 2.270318 -2.792086 1.077863 -7.859570 8.116188 2.522938 -2.024486 4.935767 -169.471801 -76.475586 -12.186319 -36.802634 53.463620 -3.377933 -45.357705 -16.276585 1.691208 8.465020 -7.760925 37.327421 -171.657831 73.191474 9.926472 1.848945 -54.948561 -42.549879 -30.742490 12.944656 -1.138263 9.993511 -0.129599 -11.013585 
-240.477493 86.978493 441.961212 88.443710 -1.617271 86.999562 -175.912055 -3.537502 170.113374 -46.750780 4.448299 6.741183 79.232510 -4.906426 -0.664532 21.454555 0.003085 0.000000 147.528794 -8.358091 -177.828879 -38.603758 -6.618730 8.289139 78.097162 -5.176355 1.896876 21.454558 -0.003109 -0.000019 7.725250 1.130121 -1.311016 5.412758 2.319878 -2.568533 5.094727 2.304459 -2.582491 2.030003 -7.667631 7.775788 2.822375 -2.079591 4.776734 -168.885703 -76.152668 -12.785034 -35.755207 54.718025 -1.568947 -42.919211 -15.700066 1.582808 8.129980 -8.417099 39.899151 -171.117781 73.673692 10.483846 1.299129 -55.856922 -42.233023 -31.260888 13.076830 -1.157173 10.418311 -0.778549 -11.708086 
-240.943207 87.845001 445.027008 88.201846 -1.692651 86.985765 177.753884 -5.818697 169.428853 -58.636300 5.603671 8.500800 71.624792 -6.768885 -1.935378 21.454550 0.003085 -0.000001 150.473316 -8.983512 -177.962355 -37.063625 -6.811456 8.363026 79.444334 -5.308850 1.522945 21.454558 -0.003103 -0.000017 7.627304 1.202208 -1.116129 5.219636 2.453145 -2.177749 4.901459 2.440076 -2.192511 2.702805 -7.378127 7.326136 3.265213 -2.152596 4.521100 -168.625404 -76.088656 -13.051331 -35.087102 55.967721 -0.373714 -39.114461 -14.651386 1.412116 8.201592 -9.522996 39.634956 -170.071396 74.100866 11.559848 1.196593 -56.171882 -41.647157 -32.996091 13.392881 -1.213727 10.946826 -1.787713 -12.652620 
-241.372894 88.628647 448.138000 87.800046 -1.641871 86.746742 171.311321 -7.702890 169.683592 -69.216912 6.216582 8.155907 68.002962 -7.117443 -3.122018 21.454562 0.003090 -0.000002 153.697370 -9.398900 -177.919639 -35.234586 -6.584494 8.081548 80.765020 -5.014803 1.940910 21.454560 -0.003114 -0.000019 7.578313 1.310591 -0.830201 5.126582 2.656357 -1.602348 4.808243 2.646765 -1.618357 2.788283 -7.036659 6.915272 3.586504 -2.302154 4.289787 -169.001406 -75.965767 -12.666331 -34.250697 56.764350 0.622028 -35.048115 -13.225818 1.221264 8.970801 -10.192421 37.339842 -169.748793 74.322826 11.891533 0.887005 -55.527635 -40.923222 -35.461738 13.938146 -1.304102 11.319422 -2.465035 -13.220641 
